<?xml version="1.0" encoding="utf-8"?>
<!-- Generator: Adobe Illustrator 25.0.0, SVG Export Plug-In . SVG Version: 6.00 Build 0)  -->
<svg version="1.1" id="Layer_1" xmlns="http://www.w3.org/2000/svg" xmlns:xlink="http://www.w3.org/1999/xlink" x="0px" y="0px"
	 viewBox="0 0 360 360" style="enable-background:new 0 0 360 360;" xml:space="preserve">
<style type="text/css">
	.st0{fill:#FFFFFF;}
	.st1{fill:none;stroke:#FFFFFF;stroke-width:1.07;stroke-linecap:round;stroke-linejoin:round;stroke-miterlimit:10;}
	.st2{clip-path:url(#SVGID_2_);fill:#FFFFFF;}
	.st3{clip-path:url(#SVGID_2_);fill:none;stroke:#EBEBEB;stroke-width:0.53;stroke-linejoin:round;stroke-miterlimit:10;}
	.st4{clip-path:url(#SVGID_2_);fill:none;stroke:#EBEBEB;stroke-width:1.07;stroke-linejoin:round;stroke-miterlimit:10;}
	.st5{clip-path:url(#SVGID_2_);fill:none;stroke:#F8766D;stroke-width:1.07;stroke-linejoin:round;stroke-miterlimit:10;}
	.st6{clip-path:url(#SVGID_2_);fill:none;stroke:#00BFC4;stroke-width:1.07;stroke-linejoin:round;stroke-miterlimit:10;}
	
		.st7{clip-path:url(#SVGID_2_);fill:none;stroke:#333333;stroke-width:1.07;stroke-linecap:round;stroke-linejoin:round;stroke-miterlimit:10;}
	.st8{fill:#4D4D4D;}
	.st9{font-family:'Helvetica';}
	.st10{font-size:9px;}
	.st11{fill:none;stroke:#333333;stroke-width:1.07;stroke-linejoin:round;stroke-miterlimit:10;}
	.st12{font-size:11px;}
	.st13{fill:none;stroke:#F8766D;stroke-width:1.07;stroke-linejoin:round;stroke-miterlimit:10;}
	.st14{fill:none;stroke:#00BFC4;stroke-width:1.07;stroke-linejoin:round;stroke-miterlimit:10;}
</style>
<rect class="st0" width="360" height="360"/>
<rect class="st1" width="360" height="360"/>
<g>
	<defs>
		<rect id="SVGID_1_" x="48.71" y="5.48" width="255.13" height="321.73"/>
	</defs>
	<clipPath id="SVGID_2_">
		<use xlink:href="#SVGID_1_"  style="overflow:visible;"/>
	</clipPath>
	<rect x="48.71" y="5.48" class="st2" width="255.13" height="321.73"/>
	<line class="st3" x1="48.71" y1="259.51" x2="303.84" y2="259.51"/>
	<line class="st3" x1="48.71" y1="153.37" x2="303.84" y2="153.37"/>
	<line class="st3" x1="48.71" y1="47.22" x2="303.84" y2="47.22"/>
	<line class="st3" x1="89.3" y1="327.21" x2="89.3" y2="5.48"/>
	<line class="st3" x1="147.28" y1="327.21" x2="147.28" y2="5.48"/>
	<line class="st3" x1="205.27" y1="327.21" x2="205.27" y2="5.48"/>
	<line class="st3" x1="263.25" y1="327.21" x2="263.25" y2="5.48"/>
	<line class="st4" x1="48.71" y1="312.59" x2="303.84" y2="312.59"/>
	<line class="st4" x1="48.71" y1="206.44" x2="303.84" y2="206.44"/>
	<line class="st4" x1="48.71" y1="100.3" x2="303.84" y2="100.3"/>
	<line class="st4" x1="60.31" y1="327.21" x2="60.31" y2="5.48"/>
	<line class="st4" x1="118.29" y1="327.21" x2="118.29" y2="5.48"/>
	<line class="st4" x1="176.27" y1="327.21" x2="176.27" y2="5.48"/>
	<line class="st4" x1="234.26" y1="327.21" x2="234.26" y2="5.48"/>
	<line class="st4" x1="292.24" y1="327.21" x2="292.24" y2="5.48"/>
	<polyline class="st5" points="60.31,224.67 62.65,169.47 64.99,218.99 67.33,231.31 69.68,235.16 72.02,226.64 74.36,223.68 
		76.71,218.16 79.05,215.01 81.39,183.47 83.73,62.83 86.08,20.1 88.42,197.86 90.76,232.16 93.1,228.01 95.45,224.8 97.79,220.08 
		100.13,206.53 102.48,194.12 104.82,197.26 107.16,202.94 109.5,223.57 111.85,230.13 114.19,232.1 116.53,237.05 118.88,244.74 
		121.22,252.98 123.56,256.39 125.9,257.03 128.25,260.54 130.59,257.61 132.93,267.54 135.28,270.41 137.62,273.35 139.96,277.53 
		142.3,282.49 144.65,286.34 146.99,289.56 149.33,292.94 151.68,294.22 154.02,293.63 156.36,295.71 158.7,298.37 161.05,299.55 
		163.39,301.08 165.73,303.33 168.07,303.91 170.42,304.42 172.76,305.12 175.1,306.04 177.45,306.68 179.79,307.33 182.13,307.44 
		184.47,308.07 186.82,308.74 189.16,308.68 191.5,309.08 193.85,309.25 196.19,309.7 198.53,309.68 200.87,310.08 203.22,310.03 
		205.56,310.54 207.9,310.67 210.25,310.97 212.59,310.61 214.93,310.93 217.27,311.17 219.62,311.22 221.96,311.06 224.3,311.27 
		226.64,311.4 228.99,311.49 231.33,311.33 233.67,311.55 236.02,311.51 238.36,311.55 240.7,311.71 243.04,311.78 245.39,311.64 
		247.73,311.69 250.07,311.76 252.42,311.81 254.76,311.88 257.1,311.83 259.44,311.88 261.79,311.92 264.13,311.96 266.47,311.84 
		268.82,311.96 271.16,312.03 273.5,312.07 275.84,312.02 278.19,312.04 280.53,312.07 282.87,311.99 285.21,312.11 287.56,311.97 
		289.9,312.09 292.24,312.34 	"/>
	<polyline class="st6" points="60.31,251.86 62.65,231.2 64.99,271.23 67.33,282.48 69.68,285.15 72.02,285.73 74.36,285.2 
		76.71,286.06 79.05,286.09 81.39,279.34 83.73,262.77 86.08,272.01 88.42,294.52 90.76,298.91 93.1,299.75 95.45,299.21 
		97.79,300.21 100.13,298.86 102.48,298.56 104.82,300.42 107.16,301.91 109.5,304.36 111.85,305.81 114.19,306.42 116.53,306.87 
		118.88,307.53 121.22,307.65 123.56,308.05 125.9,308.82 128.25,308.69 130.59,308.57 132.93,309.22 135.28,309.7 137.62,309.05 
		139.96,309.29 142.3,309.42 144.65,310.47 146.99,310.99 149.33,310.9 151.68,310.72 154.02,310.7 156.36,311 158.7,311 
		161.05,311.01 163.39,311.25 165.73,311.3 168.07,311.47 170.42,311.39 172.76,311.3 175.1,311.33 177.45,311.65 179.79,311.5 
		182.13,311.77 184.47,311.73 186.82,311.6 189.16,311.66 191.5,311.8 193.85,311.78 196.19,311.78 198.53,311.81 200.87,311.75 
		203.22,311.99 205.56,311.84 207.9,311.94 210.25,312.01 212.59,312.03 214.93,311.97 217.27,312 219.62,311.93 221.96,312.08 
		224.3,312.05 226.64,312.09 228.99,311.99 231.33,312.13 233.67,312.18 236.02,311.91 238.36,312.22 240.7,312.14 243.04,312.14 
		245.39,312.12 247.73,312.22 250.07,312.23 252.42,312.26 254.76,312.28 257.1,312.26 259.44,312.14 261.79,312.25 264.13,312.23 
		266.47,312.28 268.82,312.22 271.16,312.35 273.5,312.26 275.84,312.26 278.19,312.31 280.53,312.3 282.87,312.34 285.21,312.32 
		287.56,312.4 289.9,312.38 292.24,312.37 	"/>
	<rect x="48.71" y="5.48" class="st7" width="255.13" height="321.73"/>
</g>
<text transform="matrix(1 0 0 1 38.77 315.8203)" class="st8 st9 st10">0</text>
<text transform="matrix(1 0 0 1 18.7598 209.6699)" class="st8 st9 st10">10000</text>
<text transform="matrix(1 0 0 1 18.7598 103.5298)" class="st8 st9 st10">20000</text>
<line class="st11" x1="45.97" y1="312.59" x2="48.71" y2="312.59"/>
<line class="st11" x1="45.97" y1="206.44" x2="48.71" y2="206.44"/>
<line class="st11" x1="45.97" y1="100.3" x2="48.71" y2="100.3"/>
<line class="st11" x1="60.31" y1="329.95" x2="60.31" y2="327.21"/>
<line class="st11" x1="118.29" y1="329.95" x2="118.29" y2="327.21"/>
<line class="st11" x1="176.27" y1="329.95" x2="176.27" y2="327.21"/>
<line class="st11" x1="234.26" y1="329.95" x2="234.26" y2="327.21"/>
<line class="st11" x1="292.24" y1="329.95" x2="292.24" y2="327.21"/>
<text transform="matrix(1 0 0 1 57.7998 338.5996)" class="st8 st9 st10">0</text>
<text transform="matrix(1 0 0 1 110.7798 338.5996)" class="st8 st9 st10">250</text>
<text transform="matrix(1 0 0 1 168.77 338.5996)" class="st8 st9 st10">500</text>
<text transform="matrix(1 0 0 1 226.75 338.5996)" class="st8 st9 st10">750</text>
<text transform="matrix(1 0 0 1 282.2402 338.5996)" class="st8 st9 st10">1000</text>
<text transform="matrix(1 0 0 1 161.29 351.8799)" class="st9 st12">length</text>
<text transform="matrix(-6.123234e-17 -1 1 -6.123234e-17 13.3798 179.7998)" class="st9 st12">count</text>
<rect x="314.8" y="135.57" class="st0" width="39.72" height="61.54"/>
<text transform="matrix(1 0 0 1 320.2803 150.27)" class="st9 st12">group</text>
<rect x="320.28" y="157.07" class="st0" width="17.28" height="17.28"/>
<line class="st13" x1="322.01" y1="165.71" x2="335.83" y2="165.71"/>
<rect x="320.28" y="174.35" class="st0" width="17.28" height="17.28"/>
<line class="st14" x1="322.01" y1="182.99" x2="335.83" y2="182.99"/>
<text transform="matrix(1 0 0 1 343.04 168.9399)" class="st9 st10">L</text>
<text transform="matrix(1 0 0 1 343.04 186.2197)" class="st9 st10">S</text>
</svg>
